<svg width="800" height="10" xmlns="http://www.w3.org/2000/svg">

    <g>
        <title>Layer 1</title>
        <path fill-opacity="0.9" stroke="null" id="svg_15" fill="#00b3be"
              d="m399.21763,2.05937c-138.08868,0.31833 -274.7652,1.06958 -371.90136,2.30045c-7.06078,0.11035 -16.64327,-0.29286 -20.17366,-0.76399s0,-1.00592 6.45557,-1.07383c100.86828,-1.27331 245.25878,-1.75527 389.70216,-1.77649l-3.09408,1.23364l-0.98864,0.08021zm385.21597,0.3056a2384.32448,100.32855 0 0 0 -385.21597,-0.3056l3.3841,-1.31385a2494.67438,104.9719 0 0 1 383.6475,1.07192c2.01737,0 1.9165,0.1528 1.51302,0.28862s-1.00868,0.2674 -3.02605,0.25891l-0.3026,0z"
              class="a"/>
        <path fill-opacity="0.9" stroke="null" id="svg_16" fill="#6154a4"
              d="m397.64819,4.85647c-129.65081,0.44423 -258.39418,1.33269 -350.04584,2.72313c-6.69239,0.12438 -15.53995,-0.29319 -18.14884,-0.78185s0.79401,-1.04838 6.57896,-1.1239c94.82771,-1.4171 230.26347,-2.08344 365.81265,-2.22115l-4.19692,1.4171l0,-0.01333zm361.16201,0a1884.07694,73.78671 0 0 0 -361.16201,0l4.19692,-1.4171a1946.1233,76.21665 0 0 1 358.66654,0.8396c1.92831,0 1.70145,0.15548 1.24773,0.29763s-1.1343,0.27987 -2.94919,0.27098l0,0.00888z"
              class="b"/>
    </g>
</svg>