<svg width="799.9999999999999" height="10.33" xmlns="http://www.w3.org/2000/svg">
 <g>
  <title>Layer 1</title>
  <path transform="rotate(0.29355 395.318 7.00169)" class="b" d="m397.64819,6.06488c-129.65081,0.64653 -258.39418,1.9396 -350.04584,3.96324c-6.69239,0.18103 -15.53995,-0.42671 -18.14884,-1.1379s0.79401,-1.52581 6.57896,-1.63573c94.82771,-2.06244 230.26347,-3.03223 365.81265,-3.23266l-4.19692,2.06244l0,-0.0194l-0.00001,0.00001zm361.16201,0a1884.07694,107.38893 0 0 0 -361.16201,0l4.19692,-2.06244a1946.1233,110.92545 0 0 1 358.66654,1.22195c1.92831,0 1.70145,0.22629 1.24773,0.43318s-1.1343,0.40732 -2.94919,0.39438l0,0.01293l0.00001,0z" fill="#6154a4" id="svg_16" stroke="null"/>
 </g>

</svg>