<svg width="799.9999999999999" height="10.33" xmlns="http://www.w3.org/2000/svg">

    <g>
        <title>Layer 1</title>
        <path stroke="null" id="svg_15" fill="#00b3be"
              d="m399.55208,3.01151c-138.08868,0.46041 -274.7652,1.54697 -371.90136,3.32721c-7.06078,0.15961 -16.64327,-0.42358 -20.17366,-1.10498s0,-1.45489 6.45557,-1.55311c100.86828,-1.84163 244.50472,-2.5967 388.9481,-2.62739l-3.73213,1.95827l0.40347,0zm385.21597,0.44199a2384.32448,145.10829 0 0 0 -385.21597,-0.44199l3.73213,-1.95827a2494.67438,151.8241 0 0 1 383.29948,1.60836c2.01737,0 1.9165,0.221 1.51302,0.41744s-1.00868,0.38674 -3.02605,0.37447l-0.3026,0z"
              class="a"/>
        <path stroke="null" id="svg_16" fill="#6154a4"
              d="m397.64819,6.06488c-129.65081,0.64653 -258.39418,1.9396 -350.04584,3.96324c-6.69239,0.18103 -15.53995,-0.42671 -18.14884,-1.1379s0.79401,-1.52581 6.57896,-1.63573c94.82771,-2.06244 230.26347,-3.03223 365.81265,-3.23266l-4.19692,2.06244l0,-0.0194zm361.16201,0a1884.07694,107.38893 0 0 0 -361.16201,0l4.19692,-2.06244a1946.1233,110.92545 0 0 1 358.66654,1.22195c1.92831,0 1.70145,0.22629 1.24773,0.43318s-1.1343,0.40732 -2.94919,0.39438l0,0.01293z"
              class="b"/>
    </g>
</svg>