<svg xmlns="http://www.w3.org/2000/svg" viewBox="0 0 173.1 110.33">
    <defs>
        <style>.a{fill:#fff;}</style>
    </defs>
    <path class="a"
          d="M35.36,58A27.69,27.69,0,1,1,47.45,5.36,30.26,30.26,0,1,0,30.26,60.53a30.08,30.08,0,0,0,17.19-5.36A27.53,27.53,0,0,1,35.36,58Z"/>
    <path class="a"
          d="M33.94,52.91c11.55,0,20.92-10.14,20.92-22.65S45.49,7.61,33.94,7.61a19.53,19.53,0,0,0-9.15,2.28,21.54,21.54,0,0,1,13-4.38c12.63,0,22.87,11.08,22.87,24.75S50.42,55,37.79,55a21.61,21.61,0,0,1-13-4.38A19.53,19.53,0,0,0,33.94,52.91Z"/>
    <path class="a"
          d="M24.63,29.6,20.8,37.75v0a1.27,1.27,0,0,1-.54.56,1.39,1.39,0,0,1-.72.19,1.35,1.35,0,0,1-.71-.19,1.27,1.27,0,0,1-.54-.56v0L14.46,29.6v7.56a1.55,1.55,0,0,1-.11.59,1.39,1.39,0,0,1-.33.46,1.36,1.36,0,0,1-.94.34,1.45,1.45,0,0,1-.73-.19,1.24,1.24,0,0,1-.54-.61,1.38,1.38,0,0,1-.12-.59V23.37a1.26,1.26,0,0,1,.14-.57,1.44,1.44,0,0,1,.35-.43,1.52,1.52,0,0,1,1-.31,1.42,1.42,0,0,1,.68.16,1.33,1.33,0,0,1,.54.56h0l5.19,11.1,5.2-11.1h0a1.39,1.39,0,0,1,.54-.56,1.42,1.42,0,0,1,.68-.16,1.66,1.66,0,0,1,.73.17,1.34,1.34,0,0,1,.57.56,1.3,1.3,0,0,1,.14.58V37.16a1.38,1.38,0,0,1-.12.59,1.26,1.26,0,0,1-.33.46,1.36,1.36,0,0,1-.94.34,1.39,1.39,0,0,1-.72-.19,1.26,1.26,0,0,1-.55-.61,1.55,1.55,0,0,1-.11-.59Z"/>
    <path class="a"
          d="M30.41,38.55a1.34,1.34,0,0,1-1-.4,1.35,1.35,0,0,1-.41-1V23.37A1.38,1.38,0,0,1,30.41,22h6.81a1.33,1.33,0,0,1,1,.44,1.43,1.43,0,0,1,.16,1.67,1.23,1.23,0,0,1-.61.54,1.4,1.4,0,0,1-.58.12H31.79v11h5.43a1.33,1.33,0,0,1,1,.44,1.42,1.42,0,0,1,.35.82,1.34,1.34,0,0,1-.19.85,1.3,1.3,0,0,1-.61.55,1.4,1.4,0,0,1-.58.11Z"/>
    <path class="a"
          d="M51.69,33.11a1.4,1.4,0,0,1,.14.61v3.44a1.38,1.38,0,0,1-1.4,1.39H41.64a1.46,1.46,0,0,1-.6-.11,1.34,1.34,0,0,1-.45-.34,1.37,1.37,0,0,1-.35-.94,1.39,1.39,0,0,1,.2-.72,1.31,1.31,0,0,1,.6-.54,1.46,1.46,0,0,1,.6-.12H49V34.4l-8.26-6.5a1.5,1.5,0,0,1-.4-.47,1.4,1.4,0,0,1-.14-.61V23.37a1.33,1.33,0,0,1,.41-1,1.34,1.34,0,0,1,1-.4h8.79a1.73,1.73,0,0,1,.6.11,1.45,1.45,0,0,1,.45.33,1.37,1.37,0,0,1,.35.94,1.46,1.46,0,0,1-.2.73,1.21,1.21,0,0,1-.6.54,1.53,1.53,0,0,1-.6.12H43v1.38l8.26,6.49A1.46,1.46,0,0,1,51.69,33.11Z"/>
    <path class="a"
          d="M79.42,4a.89.89,0,0,1-.4.37,1.09,1.09,0,0,1-.4.07h-2v8.27a1,1,0,0,1-.08.4.73.73,0,0,1-.22.3.92.92,0,0,1-.63.23.91.91,0,0,1-.48-.13.88.88,0,0,1-.36-.4,1,1,0,0,1-.08-.4V4.4h-2a1,1,0,0,1-.4-.07.86.86,0,0,1-.3-.23.91.91,0,0,1-.23-.62A.86.86,0,0,1,72,3a.84.84,0,0,1,.4-.37,1,1,0,0,1,.4-.07h5.86a1.09,1.09,0,0,1,.4.07,1.05,1.05,0,0,1,.3.22.92.92,0,0,1,.23.63A.91.91,0,0,1,79.42,4Z"/>
    <path class="a"
          d="M84.1,9v2.73h3.65a.92.92,0,0,1,.38.08.84.84,0,0,1,.31.22,1,1,0,0,1,.1,1.11.85.85,0,0,1-.41.36.92.92,0,0,1-.38.08H83.18a.92.92,0,0,1-.93-.93V3.48a.86.86,0,0,1,.27-.65.9.9,0,0,1,.66-.27h4.57a.92.92,0,0,1,.38.07,1,1,0,0,1,.31.22.92.92,0,0,1,.23.63.91.91,0,0,1-.13.48.82.82,0,0,1-.41.37.92.92,0,0,1-.38.07H84.1V7.17h3.65a.92.92,0,0,1,.38.08,1,1,0,0,1,.31.21,1,1,0,0,1,.23.63,1,1,0,0,1-.13.49.85.85,0,0,1-.41.36.92.92,0,0,1-.38.08Z"/>
    <path class="a"
          d="M92.24,13.6a.92.92,0,0,1-.92-.93V3.48a.86.86,0,0,1,.27-.65.89.89,0,0,1,.65-.27h4.54a.88.88,0,0,1,.69.29.94.94,0,0,1,.23.54.92.92,0,0,1-.53.94,1,1,0,0,1-.39.07H93.16v7.35h3.62a.89.89,0,0,1,.69.3,1,1,0,0,1,.11,1.11,1,1,0,0,1-.41.36,1,1,0,0,1-.39.08Z"/>
    <path class="a"
          d="M108,13.07a.73.73,0,0,1-.22.3.94.94,0,0,1-.63.23.91.91,0,0,1-.48-.13.78.78,0,0,1-.36-.4.87.87,0,0,1-.08-.4V9h-4v3.65a1,1,0,0,1-.08.4.73.73,0,0,1-.22.3,1,1,0,0,1-1.11.1.82.82,0,0,1-.36-.4,1,1,0,0,1-.08-.4V3.48a1,1,0,0,1,.08-.39.73.73,0,0,1,.22-.3.88.88,0,0,1,.63-.23,1,1,0,0,1,.48.12.9.9,0,0,1,.36.41,1,1,0,0,1,.08.39V7.17h4V3.48a.85.85,0,0,1,.08-.39.73.73,0,0,1,.22-.3.87.87,0,0,1,.62-.23,1,1,0,0,1,.49.12.85.85,0,0,1,.36.41,1,1,0,0,1,.08.39v9.19A1,1,0,0,1,108,13.07Z"/>
    <path class="a"
          d="M118,2.68a.9.9,0,0,1,.36.41,1,1,0,0,1,.08.39v9.19a.87.87,0,0,1-.1.39.77.77,0,0,1-.23.28,1,1,0,0,1-.63.23,1,1,0,0,1-.41-.09.9.9,0,0,1-.33-.31l-4.18-6.53v6a.87.87,0,0,1-.08.4.81.81,0,0,1-.21.3,1,1,0,0,1-.63.23.89.89,0,0,1-.48-.13.84.84,0,0,1-.37-.4,1,1,0,0,1-.08-.4V3.48a.83.83,0,0,1,.1-.38.8.8,0,0,1,.22-.29,1,1,0,0,1,.64-.22,1,1,0,0,1,.41.09.84.84,0,0,1,.34.31l4.16,6.52v-6a.86.86,0,0,1,.09-.39.81.81,0,0,1,.21-.3.91.91,0,0,1,.63-.23A1,1,0,0,1,118,2.68Z"/>
    <path class="a"
          d="M121.57,13.47a.78.78,0,0,1-.36-.4.87.87,0,0,1-.08-.4V3.48a.85.85,0,0,1,.08-.39.73.73,0,0,1,.22-.3.88.88,0,0,1,.63-.23.94.94,0,0,1,.47.12.87.87,0,0,1,.37.41,1,1,0,0,1,.08.39v9.19a1,1,0,0,1-.08.4.84.84,0,0,1-.22.3,1,1,0,0,1-1.11.1Z"/>
    <path class="a"
          d="M126.53,13.6a.92.92,0,0,1-.93-.93V3.48a.86.86,0,0,1,.27-.65.9.9,0,0,1,.66-.27h4.54a.84.84,0,0,1,.68.29.88.88,0,0,1,.23.54.92.92,0,0,1-.53.94,1,1,0,0,1-.38.07h-3.62v7.35h3.62a.85.85,0,0,1,.68.3,1,1,0,0,1,.11,1.11.9.9,0,0,1-.41.36,1,1,0,0,1-.38.08Z"/>
    <path class="a"
          d="M142,12.39a1.06,1.06,0,0,1,.05.31.78.78,0,0,1-.09.37.73.73,0,0,1-.22.3,1,1,0,0,1-.64.23.84.84,0,0,1-.51-.16.86.86,0,0,1-.34-.49h0l-.53-1.64h-3.06L136.16,13a.91.91,0,0,1-.34.49.87.87,0,0,1-.52.16,1,1,0,0,1-.5-.13,1,1,0,0,1-.36-.4.77.77,0,0,1-.08-.37.81.81,0,0,1,0-.31l3-9.2a.76.76,0,0,1,.36-.46.92.92,0,0,1,.52-.14.94.94,0,0,1,.51.14.76.76,0,0,1,.36.46Zm-2.87-3-.93-2.94-.94,2.94Z"/>
    <path class="a"
          d="M150.81,12.67a1,1,0,0,1-.12.49,1,1,0,0,1-.41.36,1,1,0,0,1-.39.08h-4.54a.91.91,0,0,1-.66-.27.9.9,0,0,1-.27-.66V3.48a1,1,0,0,1,.08-.39.76.76,0,0,1,.23-.3.87.87,0,0,1,.62-.23,1,1,0,0,1,.48.12.8.8,0,0,1,.36.41.85.85,0,0,1,.08.39v8.27h3.62a1,1,0,0,1,.39.08.89.89,0,0,1,.3.22A.91.91,0,0,1,150.81,12.67Z"/>
    <path class="a"
          d="M79.46,29a1,1,0,0,1,.09.41v2.3a.92.92,0,0,1-.93.92H72.76a1,1,0,0,1-.4-.07.86.86,0,0,1-.3-.23.91.91,0,0,1-.23-.62.86.86,0,0,1,.13-.48.84.84,0,0,1,.4-.37,1,1,0,0,1,.4-.07h4.93v-.92l-5.51-4.34a.9.9,0,0,1-.26-.32.87.87,0,0,1-.09-.4v-2.3a.88.88,0,0,1,.27-.65.9.9,0,0,1,.66-.27h5.86a1.1,1.1,0,0,1,.4.08,1,1,0,0,1,.3.21,1,1,0,0,1,.23.63,1,1,0,0,1-.13.49.93.93,0,0,1-.4.36,1.1,1.1,0,0,1-.4.08H73.68v.92l5.51,4.32A1.18,1.18,0,0,1,79.46,29Z"/>
    <path class="a"
          d="M83.18,32.59a.92.92,0,0,1-.93-.92v-9.2a.88.88,0,0,1,.27-.65.9.9,0,0,1,.66-.27h5.87a.89.89,0,0,1,.65.27.88.88,0,0,1,.27.65v9.2a.92.92,0,0,1-.92.92Zm.92-1.84h4V23.4h-4Z"/>
    <path class="a"
          d="M99,31.67a1,1,0,0,1-.12.48.92.92,0,0,1-.41.37,1,1,0,0,1-.39.07H93.57a.92.92,0,0,1-.92-.92v-9.2a1,1,0,0,1,.07-.39.86.86,0,0,1,.23-.3.91.91,0,0,1,.62-.23,1,1,0,0,1,.48.12.92.92,0,0,1,.37.41,1,1,0,0,1,.07.39v8.28h3.62a1,1,0,0,1,.39.07.93.93,0,0,1,.3.22A.92.92,0,0,1,99,31.67Z"/>
    <path class="a"
          d="M109,21.67a.89.89,0,0,1,.36.41,1,1,0,0,1,.08.39v9.2a.92.92,0,0,1-.93.92h-5.86a.92.92,0,0,1-.93-.92v-9.2a1,1,0,0,1,.08-.39.73.73,0,0,1,.22-.3.92.92,0,0,1,.63-.23,1,1,0,0,1,.48.12,1,1,0,0,1,.36.41,1,1,0,0,1,.08.39v8.28h4V22.47a.85.85,0,0,1,.08-.39.73.73,0,0,1,.22-.3.91.91,0,0,1,.62-.23A1,1,0,0,1,109,21.67Z"/>
    <path class="a"
          d="M119.69,23a.83.83,0,0,1-.4.36,1,1,0,0,1-.39.08h-2v8.27a.85.85,0,0,1-.08.39.81.81,0,0,1-.21.3.91.91,0,0,1-.63.23.86.86,0,0,1-.48-.13.8.8,0,0,1-.37-.4,1,1,0,0,1-.07-.39V23.4h-2a.94.94,0,0,1-.7-.3,1,1,0,0,1-.1-1.11.85.85,0,0,1,.41-.36,1,1,0,0,1,.39-.08h5.87a1,1,0,0,1,.39.08,1,1,0,0,1,.3.21.91.91,0,0,1,.23.63A1,1,0,0,1,119.69,23Z"/>
    <path class="a"
          d="M123,32.46a.8.8,0,0,1-.37-.4,1,1,0,0,1-.07-.39v-9.2a1,1,0,0,1,.07-.39.86.86,0,0,1,.23-.3.91.91,0,0,1,.62-.23,1,1,0,0,1,.48.12.92.92,0,0,1,.37.41,1,1,0,0,1,.07.39v9.2a1,1,0,0,1-.07.39.84.84,0,0,1-.22.3.88.88,0,0,1-.63.23A.91.91,0,0,1,123,32.46Z"/>
    <path class="a"
          d="M127.93,32.59a.92.92,0,0,1-.93-.92v-9.2a.88.88,0,0,1,.27-.65.9.9,0,0,1,.66-.27h5.86a.9.9,0,0,1,.66.27.88.88,0,0,1,.27.65v9.2a.92.92,0,0,1-.93.92Zm.92-1.84h4V23.4h-4Z"/>
    <path class="a"
          d="M144.67,21.67a.92.92,0,0,1,.37.41,1,1,0,0,1,.07.39v9.2a.82.82,0,0,1-.09.38.8.8,0,0,1-.23.29,1,1,0,0,1-1,.13.92.92,0,0,1-.34-.31l-4.17-6.52v6a.85.85,0,0,1-.08.39.81.81,0,0,1-.21.3.91.91,0,0,1-.63.23,1,1,0,0,1-.49-.13.83.83,0,0,1-.36-.4,1,1,0,0,1-.08-.39v-9.2a.72.72,0,0,1,.1-.38.89.89,0,0,1,.22-.29,1,1,0,0,1,.64-.22,1,1,0,0,1,.41.09.76.76,0,0,1,.33.31l4.17,6.52v-6a1,1,0,0,1,.08-.39,1,1,0,0,1,.22-.3.94.94,0,0,1,.63-.23A1,1,0,0,1,144.67,21.67Z"/>
    <path class="a"
          d="M155.41,29a.86.86,0,0,1,.1.41v2.3a.92.92,0,0,1-.93.92h-5.87a1,1,0,0,1-.39-.07.86.86,0,0,1-.3-.23,1,1,0,0,1-.1-1.1.84.84,0,0,1,.4-.37,1,1,0,0,1,.39-.07h4.94v-.92l-5.51-4.34a.9.9,0,0,1-.26-.32.87.87,0,0,1-.09-.4v-2.3a.88.88,0,0,1,.27-.65.89.89,0,0,1,.65-.27h5.87a1,1,0,0,1,.39.08,1,1,0,0,1,.31.21,1,1,0,0,1,.23.63,1.05,1.05,0,0,1-.13.49.9.9,0,0,1-.41.36,1,1,0,0,1-.39.08h-5v.92l5.51,4.32A.91.91,0,0,1,155.41,29Z"/>
    <path class="a"
          d="M72.76,51.59a.92.92,0,0,1-.93-.93v-9.2a.88.88,0,0,1,.27-.65.9.9,0,0,1,.66-.27h4.53a.86.86,0,0,1,.69.3A1,1,0,0,1,78.09,42a1,1,0,0,1-.41.36,1,1,0,0,1-.39.08H73.68v7.35h3.61A.88.88,0,0,1,78,50a.94.94,0,0,1,.23.54,1,1,0,0,1-.12.58,1,1,0,0,1-.41.36,1,1,0,0,1-.39.08Z"/>
    <path class="a"
          d="M81.82,51.59a.92.92,0,0,1-.93-.93v-9.2a.88.88,0,0,1,.27-.65.9.9,0,0,1,.66-.27h5.87a.89.89,0,0,1,.65.27.88.88,0,0,1,.27.65v9.2a.92.92,0,0,1-.92.93Zm.92-1.85h4V42.39h-4Z"/>
    <path class="a"
          d="M98.85,50.16a.87.87,0,0,1,.07.89.94.94,0,0,1-.21.28.92.92,0,0,1-.65.26.86.86,0,0,1-.75-.44L94.63,47h-1.5v3.67a1,1,0,0,1-.07.4,1.29,1.29,0,0,1-.22.3,1,1,0,0,1-.63.23,1,1,0,0,1-.48-.12.92.92,0,0,1-.37-.41,1,1,0,0,1-.07-.4v-9.2a.94.94,0,0,1,.92-.92h5.87a.94.94,0,0,1,.93.92v4.6a.92.92,0,0,1-.93.93H96.83l2,3.18Zm-1.7-5V42.38h-4v2.75Z"/>
    <path class="a"
          d="M102.08,51.46a.9.9,0,0,1-.36-.41,1,1,0,0,1-.08-.39v-9.2a.88.88,0,0,1,.27-.65.9.9,0,0,1,.66-.27h5.86a.9.9,0,0,1,.66.27.88.88,0,0,1,.27.65v4.62a.89.89,0,0,1-.26.65h0a.86.86,0,0,1-.66.26h-4.94v3.66a1,1,0,0,1-.08.39.73.73,0,0,1-.22.3.88.88,0,0,1-.62.24A1,1,0,0,1,102.08,51.46Zm1.41-6.3h4V42.39h-4Z"/>
    <path class="a"
          d="M113,51.59a.92.92,0,0,1-.93-.93v-9.2a.88.88,0,0,1,.27-.65.9.9,0,0,1,.66-.27h5.87a.89.89,0,0,1,.65.27.88.88,0,0,1,.27.65v9.2a.92.92,0,0,1-.92.93Zm.92-1.85h4V42.39h-4Z"/>
    <path class="a"
          d="M130,50.16a.87.87,0,0,1,.07.89.94.94,0,0,1-.21.28.92.92,0,0,1-.65.26.91.91,0,0,1-.42-.11,1,1,0,0,1-.33-.33L125.77,47h-1.5v3.67a1,1,0,0,1-.07.4,1.05,1.05,0,0,1-.22.3.92.92,0,0,1-.63.23,1,1,0,0,1-.48-.12.92.92,0,0,1-.37-.41,1,1,0,0,1-.07-.4v-9.2a.94.94,0,0,1,.92-.92h5.87a.94.94,0,0,1,.93.92v4.6a.92.92,0,0,1-.93.93H128l2,3.18Zm-1.7-5V42.38h-4v2.75Z"/>
    <path class="a"
          d="M140.15,50.37a1.15,1.15,0,0,1,0,.31,1,1,0,0,1-.08.38.8.8,0,0,1-.23.29.92.92,0,0,1-.63.24.9.9,0,0,1-.52-.17.85.85,0,0,1-.34-.48h0l-.52-1.65h-3.06l-.54,1.66a.81.81,0,0,1-.34.48.85.85,0,0,1-.51.17,1.06,1.06,0,0,1-.5-.13.93.93,0,0,1-.36-.4.82.82,0,0,1-.09-.38.89.89,0,0,1,.06-.31l2.94-9.19a.81.81,0,0,1,.36-.47,1,1,0,0,1,.52-.14,1,1,0,0,1,.51.14.87.87,0,0,1,.37.47Zm-2.87-2.94-.94-2.94-.94,2.94Z"/>
    <path class="a"
          d="M147.67,42a.83.83,0,0,1-.4.36,1,1,0,0,1-.39.08h-2v8.27a1,1,0,0,1-.07.39,1,1,0,0,1-.22.3.92.92,0,0,1-.63.24,1,1,0,0,1-.48-.13.87.87,0,0,1-.37-.41,1,1,0,0,1-.07-.39V42.39h-2a1,1,0,0,1-.39-.08.73.73,0,0,1-.3-.22.92.92,0,0,1-.1-1.11.83.83,0,0,1,.4-.36,1,1,0,0,1,.39-.08h5.87a1,1,0,0,1,.39.08.89.89,0,0,1,.3.22.87.87,0,0,1,.23.62A.92.92,0,0,1,147.67,42Z"/>
    <path class="a"
          d="M151,51.46a.87.87,0,0,1-.37-.41,1,1,0,0,1-.07-.39v-9.2a.92.92,0,0,1,.07-.38,1,1,0,0,1,.23-.31.92.92,0,0,1,.63-.23.85.85,0,0,1,.47.13.82.82,0,0,1,.37.41.92.92,0,0,1,.08.38v9.2a1,1,0,0,1-.08.39.84.84,0,0,1-.22.3.88.88,0,0,1-.62.24A1,1,0,0,1,151,51.46Z"/>
    <path class="a"
          d="M155.91,51.59a.92.92,0,0,1-.93-.93v-9.2a.88.88,0,0,1,.27-.65.9.9,0,0,1,.66-.27h5.87a.89.89,0,0,1,.65.27.88.88,0,0,1,.27.65v9.2a.92.92,0,0,1-.92.93Zm.92-1.85h4V42.39h-4Z"/>
    <path class="a"
          d="M172.65,40.67a.82.82,0,0,1,.37.41.92.92,0,0,1,.08.38v9.2a.76.76,0,0,1-.1.39.86.86,0,0,1-.23.28.94.94,0,0,1-1,.13.76.76,0,0,1-.33-.31l-4.18-6.52v6a1,1,0,0,1-.07.39,1,1,0,0,1-.22.3.92.92,0,0,1-.63.24,1,1,0,0,1-.48-.13.87.87,0,0,1-.37-.41,1,1,0,0,1-.08-.39v-9.2a.86.86,0,0,1,.1-.38.76.76,0,0,1,.22-.28,1,1,0,0,1,.64-.23.83.83,0,0,1,.41.1.71.71,0,0,1,.33.31l4.17,6.52v-6a.79.79,0,0,1,.09-.38,1,1,0,0,1,.21-.31,1,1,0,0,1,.63-.23A.89.89,0,0,1,172.65,40.67Z"/>
    <path class="a" d="M35,90.43h2.28V83.62H35V81.91h6.47v1.71H39.14v6.81h2.29v1.71H35Z"/>
    <path class="a" d="M47.36,83.66H44.44V81.91h7.74v1.75H49.26v8.48h-1.9Z"/>
    <path class="a"
          d="M61.49,81.91h3.08c2.57,0,4,1.22,4,3.43,0,2.43-1.41,3.78-4,3.78H63.23v3H61.49Zm3.08,5.61a1.92,1.92,0,0,0,2.14-2.11c0-1.23-.75-1.9-2.14-1.9H63.23v4Z"/>
    <path class="a"
          d="M76.22,90.53h-.17c-.12,1.17-1,1.76-2.36,1.76-1.61,0-2.54-.82-2.54-2.27,0-1.67,1.24-2.59,3.42-2.59a6.69,6.69,0,0,1,1.51.14v-.15c0-.9-.7-1.29-2.09-1.33l-1.91,0,.15-1.6,1.61,0c2.67,0,4,1.1,4,3.12v3l1.15.16v1.44l-2.62.07Zm-1.61-1.62c-1.11,0-1.7.34-1.7,1s.41.9,1.17.9c1.33,0,2-.83,2-1.62V89A8.12,8.12,0,0,0,74.61,88.91Z"/>
    <path class="a"
          d="M84.57,90.6h1.82v1.54H81.15V90.6H82.8V86.05H81.44V84.51h2.84l.24,1.81h.24a1.81,1.81,0,0,1,2-2c1.5,0,2.25,1,2.25,3H87.24c0-1-.31-1.39-1-1.39-1.09,0-1.63,1-1.63,2.88Z"/>
    <path class="a"
          d="M93.06,89.08v-3H91.2V84.51h1.86V82.2h1.77v2.31h3.42v1.61H94.83v2.82c0,1.18.56,1.69,1.93,1.69a12.31,12.31,0,0,0,1.61-.15l.17,1.63a10.11,10.11,0,0,1-1.93.18C94.1,92.29,93.06,91.32,93.06,89.08Z"/>
    <path class="a"
          d="M106.61,87.46c0-.92-.44-1.44-1.21-1.44-1.06,0-1.6.7-1.6,2.12v4H102V84.51h1.6l.15,1.38h.2c.12-1,.69-1.53,1.88-1.53,1.62,0,2.54,1,2.54,2.81v5h-1.78Z"/>
    <path class="a"
          d="M111.83,88.31c0-2.49,1.27-4,3.48-4s3.35,1.3,3.35,3.71c0,.36,0,.68,0,1h-5a2.25,2.25,0,0,0,2.47,1.58,10.23,10.23,0,0,0,2-.2l.19,1.64a12.29,12.29,0,0,1-2.34.21C113.32,92.29,111.83,90.87,111.83,88.31Zm5.13-.53c0-1.17-.61-1.81-1.63-1.81s-1.63.65-1.76,1.81Z"/>
    <path class="a"
          d="M125,90.6h1.82v1.54h-5.24V90.6h1.65V86.05h-1.36V84.51h2.84l.24,1.81h.24a1.81,1.81,0,0,1,2-2c1.5,0,2.25,1,2.25,3h-1.78c0-1-.31-1.39-1-1.39-1.09,0-1.63,1-1.63,2.88Z"/>
    <path class="a"
          d="M132.29,92.07l.21-1.67a20.44,20.44,0,0,0,2.47.23c1.39,0,2-.22,2-.72,0-.33-.18-.47-.57-.58l-2.2-.61c-1.21-.33-1.79-.86-1.79-1.94,0-1.66,1.31-2.42,4.14-2.42a15.2,15.2,0,0,1,2.08.15l-.18,1.61c-.84-.07-1.45-.1-1.95-.1-1.59,0-2.26.21-2.26.7,0,.32.2.44.65.56l1.84.5c1.43.36,2.11,1,2.11,2.12,0,1.63-1.22,2.39-3.86,2.39A12.53,12.53,0,0,1,132.29,92.07Z"/>
    <path class="a"
          d="M100.31,97.77c-13.69.75-27.24,2.52-36.87,5.42-.7.26-1.65-.69-2-1.8s0-2.37.64-2.53c10-3,24.24-4.23,38.56-4.28l-.37,3.19Zm38.19.72a236.38,236.38,0,0,0-38.19-.72l.37-3.19a247.32,247.32,0,0,1,38,2.62c.2,0,.19.36.15.68s-.1.63-.3.61Z"/>
    <path class="a"
          d="M102.16,104.15c-11.43,1-22.78,3-30.86,6.13-.59.28-1.37-.66-1.6-1.76s.07-2.36.58-2.53c8.36-3.19,20.3-4.69,32.25-5l-.37,3.19Zm31.84,0a166.1,166.1,0,0,0-31.84,0l.37-3.19a171.57,171.57,0,0,1,31.62,1.89c.17,0,.15.35.11.67s-.1.63-.26.61Z"/>
</svg>