<svg xmlns="http://www.w3.org/2000/svg" viewBox="0 0 60.66 60.53">
    <defs>
        <style>.a{fill:#00b3be;}.b{fill:#6154a4;}</style>
    </defs>
    <path class="a"
          d="M35.36,58A27.69,27.69,0,1,1,47.45,5.36,30.26,30.26,0,1,0,30.26,60.53a30.08,30.08,0,0,0,17.19-5.36A27.53,27.53,0,0,1,35.36,58Z"/>
    <path class="b"
          d="M33.94,52.91c11.55,0,20.92-10.14,20.92-22.65S45.49,7.61,33.94,7.61a19.53,19.53,0,0,0-9.15,2.28,21.54,21.54,0,0,1,13-4.38c12.63,0,22.87,11.08,22.87,24.75S50.42,55,37.79,55a21.61,21.61,0,0,1-13-4.38A19.53,19.53,0,0,0,33.94,52.91Z"/>
    <path class="b"
          d="M24.63,29.6,20.8,37.75v0a1.27,1.27,0,0,1-.54.56,1.39,1.39,0,0,1-.72.19,1.35,1.35,0,0,1-.71-.19,1.27,1.27,0,0,1-.54-.56v0L14.46,29.6v7.56a1.55,1.55,0,0,1-.11.59,1.39,1.39,0,0,1-.33.46,1.36,1.36,0,0,1-.94.34,1.45,1.45,0,0,1-.73-.19,1.24,1.24,0,0,1-.54-.61,1.38,1.38,0,0,1-.12-.59V23.37a1.26,1.26,0,0,1,.14-.57,1.44,1.44,0,0,1,.35-.43,1.52,1.52,0,0,1,1-.31,1.42,1.42,0,0,1,.68.16,1.33,1.33,0,0,1,.54.56h0l5.19,11.1,5.2-11.1h0a1.39,1.39,0,0,1,.54-.56,1.42,1.42,0,0,1,.68-.16,1.66,1.66,0,0,1,.73.17,1.34,1.34,0,0,1,.57.56,1.3,1.3,0,0,1,.14.58V37.16a1.38,1.38,0,0,1-.12.59,1.26,1.26,0,0,1-.33.46,1.36,1.36,0,0,1-.94.34,1.39,1.39,0,0,1-.72-.19,1.26,1.26,0,0,1-.55-.61,1.55,1.55,0,0,1-.11-.59Z"/>
    <path class="b"
          d="M30.41,38.55a1.34,1.34,0,0,1-1-.4,1.35,1.35,0,0,1-.41-1V23.37A1.38,1.38,0,0,1,30.41,22h6.81a1.33,1.33,0,0,1,1,.44,1.43,1.43,0,0,1,.16,1.67,1.23,1.23,0,0,1-.61.54,1.4,1.4,0,0,1-.58.12H31.79v11h5.43a1.33,1.33,0,0,1,1,.44,1.42,1.42,0,0,1,.35.82,1.34,1.34,0,0,1-.19.85,1.3,1.3,0,0,1-.61.55,1.4,1.4,0,0,1-.58.11Z"/>
    <path class="b"
          d="M51.69,33.11a1.4,1.4,0,0,1,.14.61v3.44a1.38,1.38,0,0,1-1.4,1.39H41.64a1.46,1.46,0,0,1-.6-.11,1.34,1.34,0,0,1-.45-.34,1.37,1.37,0,0,1-.35-.94,1.39,1.39,0,0,1,.2-.72,1.31,1.31,0,0,1,.6-.54,1.46,1.46,0,0,1,.6-.12H49V34.4l-8.26-6.5a1.5,1.5,0,0,1-.4-.47,1.4,1.4,0,0,1-.14-.61V23.37a1.33,1.33,0,0,1,.41-1,1.34,1.34,0,0,1,1-.4h8.79a1.73,1.73,0,0,1,.6.11,1.45,1.45,0,0,1,.45.33,1.37,1.37,0,0,1,.35.94,1.46,1.46,0,0,1-.2.73,1.21,1.21,0,0,1-.6.54,1.53,1.53,0,0,1-.6.12H43v1.38l8.26,6.49A1.46,1.46,0,0,1,51.69,33.11Z"/>
</svg>