<svg xmlns="http://www.w3.org/2000/svg" viewBox="0 0 103.86 28.41">
    <defs>
        <style>.a{fill:#6154a4;}.b{fill:#00b3be;}</style>
    </defs>
    <path class="a" d="M0,8.51H2.28V1.71H0V0H6.47V1.71H4.18v6.8H6.47v1.72H0Z"/>
    <path class="a" d="M12.4,1.75H9.48V0h7.74V1.75H14.3v8.48H12.4Z"/>
    <path class="a"
          d="M26.53,0h3.08c2.57,0,4,1.22,4,3.43,0,2.43-1.41,3.77-4,3.77H28.27v3H26.53Zm3.08,5.6a1.91,1.91,0,0,0,2.14-2.1c0-1.23-.75-1.9-2.14-1.9H28.27v4Z"/>
    <path class="a"
          d="M41.26,8.61h-.17c-.12,1.18-1,1.76-2.36,1.76-1.61,0-2.54-.81-2.54-2.26,0-1.67,1.24-2.59,3.42-2.59a7.38,7.38,0,0,1,1.51.13V5.5c0-.89-.71-1.29-2.1-1.32l-1.9,0,.15-1.61,1.61,0c2.66,0,3.95,1.1,3.95,3.12v3L44,8.79v1.44l-2.62.07ZM39.65,7C38.54,7,38,7.33,38,8s.41.9,1.17.9c1.33,0,2-.82,2-1.62V7.09A7.32,7.32,0,0,0,39.65,7Z"/>
    <path class="a"
          d="M49.61,8.69h1.82v1.54H46.19V8.69h1.65V4.13H46.48V2.59h2.84l.24,1.82h.24a1.81,1.81,0,0,1,2-2c1.5,0,2.24,1,2.24,3H52.28c0-1-.31-1.39-1-1.39-1.09,0-1.63,1-1.63,2.87Z"/>
    <path class="a"
          d="M58.1,7.17v-3H56.23V2.59H58.1V.29h1.77v2.3h3.42V4.21H59.87V7c0,1.19.56,1.69,1.92,1.69a12.07,12.07,0,0,0,1.62-.14l.17,1.63a11,11,0,0,1-1.93.17C59.14,10.37,58.1,9.41,58.1,7.17Z"/>
    <path class="a"
          d="M71.65,5.55c0-.93-.44-1.44-1.21-1.44-1.06,0-1.6.69-1.6,2.11v4H67.06V2.59h1.6L68.81,4H69c.12-1,.69-1.53,1.88-1.53,1.61,0,2.54,1,2.54,2.81v5H71.65Z"/>
    <path class="a"
          d="M76.87,6.4c0-2.5,1.27-3.95,3.48-3.95s3.35,1.3,3.35,3.71c0,.36,0,.67,0,1h-5a2.25,2.25,0,0,0,2.47,1.59,10.23,10.23,0,0,0,2-.2l.19,1.64a13,13,0,0,1-2.34.2C78.36,10.37,76.87,9,76.87,6.4ZM82,5.86c0-1.16-.61-1.81-1.63-1.81s-1.63.65-1.76,1.81Z"/>
    <path class="a"
          d="M90.08,8.69H91.9v1.54H86.66V8.69h1.65V4.13H87V2.59h2.84L90,4.41h.24a1.81,1.81,0,0,1,2-2c1.5,0,2.24,1,2.24,3H92.75c0-1-.31-1.39-1-1.39-1.09,0-1.63,1-1.63,2.87Z"/>
    <path class="a"
          d="M97.33,10.16l.2-1.68a18.83,18.83,0,0,0,2.47.23c1.4,0,2-.21,2-.72,0-.32-.18-.46-.57-.57l-2.2-.61c-1.21-.34-1.79-.87-1.79-1.95,0-1.65,1.3-2.41,4.13-2.41a16.93,16.93,0,0,1,2.09.14l-.18,1.62c-.84-.08-1.45-.1-2-.1-1.59,0-2.26.2-2.26.69,0,.33.2.45.65.57l1.84.49c1.43.37,2.1,1,2.1,2.13,0,1.62-1.21,2.38-3.86,2.38A12.53,12.53,0,0,1,97.33,10.16Z"/>
    <path class="b"
          d="M65.35,15.85c-13.69.76-27.24,2.52-36.87,5.42-.7.27-1.65-.68-2-1.8s0-2.36.64-2.52c10-3,24.24-4.23,38.56-4.29l-.37,3.19Zm38.19.72a238.73,238.73,0,0,0-38.19-.72l.37-3.19a247.2,247.2,0,0,1,38,2.63c.2,0,.19.36.15.67s-.1.63-.3.61Z"/>
    <path class="a"
          d="M67.2,22.24c-11.44,1-22.78,3-30.86,6.12-.59.28-1.37-.65-1.6-1.75s.07-2.37.58-2.54c8.36-3.18,20.3-4.69,32.25-5l-.37,3.19Zm31.84,0a164.49,164.49,0,0,0-31.84,0l.37-3.19a171.48,171.48,0,0,1,31.61,1.88c.18,0,.16.36.12.67s-.1.63-.26.62Z"/>
</svg>